HIERARCHY
ROOT Hips
{
  OFFSET 0.000000 0.000000 0.000000
  CHANNELS 6 Xposition Yposition Zposition Xrotation Yrotation Zrotation
  JOINT Spine
  {
    OFFSET -6.423313 -17.000212 -13.334487
    CHANNELS 3 Xrotation Yrotation Zrotation
    JOINT Chest
    {
      OFFSET -6.423313 -17.000212 -13.334487
      CHANNELS 3 Xrotation Yrotation Zrotation
      JOINT Neck
      {
        OFFSET -8.565987 -10.465851 -10.311200
        CHANNELS 3 Xrotation Yrotation Zrotation
        JOINT Head
        {
          OFFSET -6.506337 7.210322 -3.531532
          CHANNELS 3 Xrotation Yrotation Zrotation
          End Site
          {
            OFFSET 0.0 5.0 2.0
          }
        }
      }
      JOINT LeftShoulder
      {
        OFFSET 16.191032 -0.222631 -5.090955
        CHANNELS 3 Xrotation Yrotation Zrotation
        JOINT LeftArm
        {
          OFFSET 10.448869 20.915173 -1.238295
          CHANNELS 3 Xrotation Yrotation Zrotation
          JOINT LeftForeArm
          {
            OFFSET 6.900823 23.754111 -0.858906
            CHANNELS 3 Xrotation Yrotation Zrotation
            JOINT LeftHand
            {
              OFFSET 0.929018 7.328410 -2.677089
              CHANNELS 3 Xrotation Yrotation Zrotation
              End Site
              {
                OFFSET -3.0 0.0 2.0
              }
            }
          }
        }
      }
      JOINT RightShoulder
      {
        OFFSET -16.191032 0.222631 5.090955
        CHANNELS 3 Xrotation Yrotation Zrotation
        JOINT RightArm
        {
          OFFSET -13.712075 14.695798 8.321647
          CHANNELS 3 Xrotation Yrotation Zrotation
          JOINT RightForeArm
          {
            OFFSET -17.210048 12.326384 -1.738171
            CHANNELS 3 Xrotation Yrotation Zrotation
            JOINT RightHand
            {
              OFFSET 5.000000 0.000000 0.000000
              CHANNELS 3 Xrotation Yrotation Zrotation
              End Site
              {
                OFFSET 3.0 0.0 2.0
              }
            }
          }
        }
      }
    }
  }
  JOINT LeftUpLeg
  {
    OFFSET 12.282434 -0.310965 -0.080493
    CHANNELS 3 Xrotation Yrotation Zrotation
    JOINT LeftLeg
    {
      OFFSET 9.663075 41.630832 -4.887251
      CHANNELS 3 Xrotation Yrotation Zrotation
      JOINT LeftFoot
      {
        OFFSET -5.787469 21.882853 26.702196
        CHANNELS 3 Xrotation Yrotation Zrotation
        JOINT LeftToeBase
        {
          OFFSET 2.886885 12.176341 -6.834447
          CHANNELS 3 Xrotation Yrotation Zrotation
          End Site
          {
            OFFSET 0.0 -1.0 3.0
          }
        }
      }
    }
  }
  JOINT RightUpLeg
  {
    OFFSET -12.282434 0.310965 0.080493
    CHANNELS 3 Xrotation Yrotation Zrotation
    JOINT RightLeg
    {
      OFFSET -1.472860 28.795469 -20.184857
      CHANNELS 3 Xrotation Yrotation Zrotation
      JOINT RightFoot
      {
        OFFSET 0.086358 39.286014 3.546105
        CHANNELS 3 Xrotation Yrotation Zrotation
        JOINT RightToeBase
        {
          OFFSET -4.442337 10.512209 -13.824183
          CHANNELS 3 Xrotation Yrotation Zrotation
          End Site
          {
            OFFSET 0.0 -1.0 3.0
          }
        }
      }
    }
  }
}
MOTION
Frames: 7
Frame Time: 0.033333
0.000000 0.000000 0.000000 0.000000 0.000000 0.000000 0.000000 0.000000 0.000000 0.000000 0.000000 0.000000 0.000000 0.000000 0.000000 0.000000 0.000000 0.000000 0.000000 0.000000 0.000000 0.000000 0.000000 0.000000 0.000000 0.000000 0.000000 0.000000 0.000000 0.000000 0.000000 0.000000 0.000000 0.000000 0.000000 0.000000 37.833432 22.114571 120.614117 0.000000 0.000000 0.000000 0.000000 0.000000 0.000000 0.000000 0.000000 0.000000 56.565787 -11.191760 -6.035466 0.000000 0.000000 0.000000 0.000000 0.000000 0.000000 0.000000 0.000000 0.000000 101.827980 22.470756 27.484725 0.000000 0.000000 0.000000
0.000000 0.000000 0.000000 -0.003433 -0.140292 0.022401 4.489454 -1.878862 0.149568 0.024546 -4.876387 0.335878 -10.119470 -11.553971 -2.889495 0.000000 0.000000 0.000000 5.193766 -2.586972 0.831258 0.462539 -0.132287 0.065018 -0.126507 0.079000 0.171710 0.000000 0.000000 0.000000 3.029904 0.638422 3.676368 -2.508656 -3.918670 -1.922046 45.379686 26.908969 120.443316 0.000000 0.000000 0.000000 2.576789 -0.461881 1.437690 5.606718 -0.132029 1.267319 56.989304 -11.238543 -7.790105 0.000000 0.000000 0.000000 5.283462 -1.636014 -2.988317 -1.272141 -0.235402 3.011125 105.823529 22.011770 32.475672 0.000000 0.000000 0.000000
0.000000 0.000000 0.000000 0.000505 0.114573 -0.317147 2.512112 -1.861127 1.083081 -0.753641 -3.673909 -2.463650 -10.727338 -10.729847 -0.834958 0.000000 0.000000 0.000000 6.378388 -3.132052 -4.584920 -2.531385 0.946714 3.468962 -4.059418 4.268342 9.106574 0.000000 0.000000 0.000000 -1.087222 -4.096333 5.928217 -15.259388 -18.399710 6.425162 94.912710 46.386229 137.069449 0.000000 0.000000 0.000000 3.144230 -0.567468 1.809531 4.329699 0.670344 0.401887 58.462317 -11.334963 -11.836150 0.000000 0.000000 0.000000 5.134824 -2.311646 -4.026924 -1.161179 -0.352623 4.433929 105.423766 21.866129 38.907543 0.000000 0.000000 0.000000
0.000000 0.000000 0.000000 -0.013462 0.691131 -2.460391 -3.304620 -0.566433 2.413460 -1.691615 -3.993697 -5.787759 -15.522707 -16.181467 -1.470024 0.000000 0.000000 0.000000 -5.553356 1.951996 -7.132251 -31.305675 11.308171 5.507540 -12.607091 10.339683 17.000949 0.000000 0.000000 0.000000 -8.516403 -11.082992 9.016075 -22.946461 -25.121248 11.671599 102.351094 52.986208 136.288613 0.000000 0.000000 0.000000 1.831727 -0.163085 2.589759 -0.562481 1.071140 -1.006997 62.952617 -11.302743 -18.612548 0.000000 0.000000 0.000000 8.426565 -1.998511 -4.031649 3.412054 -0.394935 3.217422 100.110693 22.731875 37.036120 0.000000 0.000000 0.000000
0.000000 0.000000 0.000000 -0.040123 0.908956 -4.359224 -6.475012 0.222382 3.048298 -1.793160 -5.192067 -6.302514 -27.375015 -31.502518 -3.321826 0.000000 0.000000 0.000000 -15.629162 5.443362 -11.108044 -45.978511 19.401931 10.100793 -16.945446 19.141922 29.406638 0.000000 0.000000 0.000000 -15.113599 -17.380293 15.865261 -26.012108 -27.967991 12.933097 95.771923 51.287511 133.080209 0.000000 0.000000 0.000000 -0.556129 0.483146 2.870430 -5.222341 1.716722 -2.709957 63.788542 -11.311577 -18.705024 0.000000 0.000000 0.000000 11.340802 -1.390885 -3.435344 15.377784 0.758470 -3.476053 93.296688 23.196864 28.864902 0.000000 0.000000 0.000000
0.000000 0.000000 0.000000 -0.066509 1.264969 -5.601403 -18.720870 4.417837 3.545450 -2.502409 -8.358569 -9.643570 -42.982977 -43.732720 2.885527 0.000000 0.000000 0.000000 -25.007565 8.489426 -13.464618 -63.015671 29.238423 12.122692 -22.402672 31.188470 42.662100 0.000000 0.000000 0.000000 -15.818723 -19.025312 21.368100 -32.384045 -31.797723 18.126198 117.994035 63.163329 139.448468 0.000000 0.000000 0.000000 -0.479647 0.560215 3.654465 -10.499070 2.732344 -5.129193 64.605547 -10.934078 -24.375313 0.000000 0.000000 0.000000 11.912013 -0.016218 -1.054011 18.946655 1.962411 -7.670939 92.139867 22.952988 24.494605 0.000000 0.000000 0.000000
0.000000 0.000000 0.000000 -0.119332 2.177352 -6.826084 -23.661253 6.675078 2.330713 -2.790390 -8.410119 -10.819277 -47.846757 -44.674497 6.906842 0.000000 0.000000 0.000000 -32.711260 9.282592 -19.293704 -76.776360 31.324450 5.309238 -29.854623 34.743116 40.624085 0.000000 0.000000 0.000000 -24.149060 -23.539996 24.304300 -32.742990 -30.117518 21.281518 122.019565 58.066890 145.808627 0.000000 0.000000 0.000000 -0.561462 0.948243 6.573240 -15.416150 4.619708 -8.643642 64.294057 -10.691311 -28.175937 0.000000 0.000000 0.000000 11.855132 0.457827 -0.196670 19.005498 2.813970 -10.891601 90.120495 23.322178 27.328266 0.000000 0.000000 0.000000
